<svg xmlns="http://www.w3.org/2000/svg" xmlns:xlink="http://www.w3.org/1999/xlink" width="500" zoomAndPan="magnify" viewBox="0 0 375 187.499995" height="250" preserveAspectRatio="xMidYMid meet" version="1.0"><defs><clipPath id="523819a1e3"><path d="M 0.5 1 L 374.5 1 L 374.5 127 L 0.5 127 Z M 0.5 1 " clip-rule="nonzero"/></clipPath></defs><g clip-path="url(#523819a1e3)"><path stroke-linecap="butt" transform="matrix(0.748005, 0, 0, 0.748005, 3.596203, 26.397215)" fill="none" stroke-linejoin="miter" d="M 33.784501 95.965196 L 33.784501 7.913301 L 65.530392 7.913301 C 78.23606 7.913301 88.309727 18.394302 88.309727 31.094747 C 88.309727 45.586415 77.259504 47.236637 82.648838 53.033304 C 94.816617 65.467416 86.795283 91.280862 65.66617 91.280862 L 47.73828 91.280862 C 41.670057 91.280862 41.670057 100.64953 47.73828 100.64953 L 65.66617 100.64953 C 91.479616 100.64953 106.540506 70.825416 91.918283 49.597082 C 95.892395 43.800415 97.542617 37.298747 97.542617 30.828414 C 97.542617 13.407079 84.434838 -1.491922 65.530392 -1.491922 L 29.100168 -1.491922 C 26.609168 -1.491922 24.551612 0.732745 24.551612 3.192412 L 24.551612 95.965196 C 24.551612 102.033419 33.784501 102.033419 33.784501 95.965196 Z M 47.73828 26.410413 L 63.88017 26.410413 C 66.778504 26.410413 68.700282 28.467969 68.700282 31.094747 C 68.700282 36.760858 62.496281 35.779081 58.75717 35.779081 C 52.694169 35.779081 52.694169 45.017192 58.75717 45.017192 C 64.418059 45.017192 69.138948 45.586415 73.823282 41.037859 C 82.648838 32.478636 76.716393 17.14619 63.88017 17.14619 L 47.73828 17.14619 C 41.670057 17.14619 41.670057 26.410413 47.73828 26.410413 Z M 63.88017 82.016639 C 67.890837 82.016639 71.32706 80.496973 73.823282 78.005972 C 82.648838 69.310972 76.716393 54.281415 63.88017 54.281415 L 47.73828 54.281415 C 41.670057 54.281415 41.670057 63.378527 47.73828 63.378527 L 63.88017 63.378527 C 66.778504 63.378527 68.700282 65.33686 68.700282 68.062861 C 68.700282 77.196528 54.072836 68.36575 54.072836 77.332306 C 54.072836 82.993195 60.579725 82.016639 63.88017 82.016639 Z M 132.745619 95.83464 L 132.745619 8.179634 L 164.49151 8.179634 C 170.721622 8.179634 176.351178 10.675857 180.497623 14.785746 C 194.717735 29.141636 184.774623 54.281415 164.49151 54.281415 C 161.050066 54.281415 158.28751 58.292082 161.050066 61.864082 L 186.597179 98.461418 C 189.897623 103.412085 197.480291 98.022752 194.044068 93.066862 L 172.6434 62.438527 C 178.168511 61.054638 183.124401 57.989193 187.135068 54.00986 C 207.016069 33.559636 192.795957 -1.084589 164.49151 -1.084589 L 128.197064 -1.084589 C 125.700841 -1.084589 123.51273 1.0043 123.51273 3.495301 L 123.51273 95.83464 C 123.51273 101.897641 132.745619 101.897641 132.745619 95.83464 Z M 162.971844 45.017192 C 170.554511 45.017192 176.925622 39.084748 176.925622 31.366303 C 176.925622 24.321524 171.395289 17.281968 162.971844 17.281968 L 146.56362 17.281968 C 140.464064 17.281968 140.464064 26.546191 146.56362 26.546191 L 162.971844 26.546191 C 165.598622 26.546191 167.791955 28.467969 167.791955 31.230525 C 167.791955 36.625081 162.70551 35.914858 158.423288 35.914858 C 150.976398 35.914858 151.247954 44.609859 158.423288 45.017192 C 159.937732 45.184304 161.723733 45.017192 162.971844 45.017192 Z M 171.531067 93.066862 L 150.401954 62.840638 C 147.806509 59.36786 142.009842 60.751749 142.009842 65.738972 L 142.009842 95.83464 C 142.009842 101.897641 151.247954 101.897641 151.247954 95.83464 L 151.247954 80.094862 L 163.948399 98.461418 C 167.5204 103.412085 174.967289 98.022752 171.531067 93.066862 Z M 218.050625 96.638863 L 251.310961 12.863968 L 284.571297 96.638863 C 285.547852 98.999307 288.310408 100.111641 290.639519 99.270863 C 292.994742 98.158529 294.107075 95.563085 293.130519 93.20264 L 255.587961 -0.917477 C 255.18585 -2.029811 254.345072 -3.142144 252.961183 -3.544255 C 250.773072 -4.520811 248.010516 -3.408478 247.028738 -0.917477 L 209.355625 93.20264 C 208.514847 95.563085 209.757736 98.158529 211.982403 99.270863 C 214.311514 100.111641 216.938292 98.999307 218.050625 96.638863 Z M 244.537738 72.78375 L 257.948406 72.78375 C 260.543851 72.78375 262.768517 70.694861 262.768517 68.062861 C 262.768517 67.389194 262.63274 66.851305 262.366406 66.276861 L 255.587961 49.732859 C 254.611406 47.508193 251.984628 46.395859 249.524961 47.372415 C 247.300294 48.218415 246.187961 50.980971 247.028738 53.30486 L 251.175183 63.514305 L 244.537738 63.514305 C 242.041516 63.514305 239.989182 65.467416 239.989182 68.062861 C 239.989182 70.694861 242.041516 72.78375 244.537738 72.78375 Z M 237.795849 96.638863 L 240.12496 91.280862 L 262.496962 91.280862 L 264.690295 96.638863 C 265.666851 99.135085 268.429407 100.111641 270.753296 99.270863 C 273.11374 98.158529 274.090296 95.563085 273.249518 93.20264 L 269.943851 85.181306 C 269.374629 83.395306 267.588629 81.880862 265.531073 81.880862 L 236.955071 81.880862 C 235.304849 81.880862 233.518849 83.128973 232.672849 84.779195 L 229.372404 93.20264 C 228.395848 95.563085 229.508182 98.158529 231.832071 99.270863 C 234.328293 100.111641 236.955071 98.999307 237.795849 96.638863 Z M 384.644748 1.813745 L 349.567079 87.949084 L 314.384965 1.813745 C 313.40841 -0.510144 310.77641 -1.622478 308.452521 -0.7817 C 305.96152 0.294078 304.984965 2.790301 305.825743 5.281301 L 345.149079 101.761863 C 346.804523 105.636752 352.058079 105.636752 353.713524 101.761863 L 393.073415 5.281301 C 394.013415 2.790301 392.901082 0.294078 390.577193 -0.7817 C 388.352526 -1.622478 385.58997 -0.510144 384.644748 1.813745 Z M 326.787744 5.281301 L 345.149079 50.678082 C 346.804523 54.417193 352.193857 54.417193 353.713524 50.678082 L 372.346414 5.281301 C 373.187192 2.790301 372.074858 0.294078 369.719636 -0.7817 C 367.390525 -1.622478 364.627969 -0.510144 363.787191 1.813745 L 349.567079 36.760858 L 335.211189 1.813745 C 334.265967 -0.510144 331.639189 -1.622478 329.142966 -0.7817 C 326.954855 0.294078 325.706744 2.790301 326.787744 5.281301 Z M 466.06442 91.150307 L 422.996751 91.150307 L 422.996751 8.179634 L 466.06442 8.179634 C 468.691198 8.179634 470.748754 6.090745 470.748754 3.495301 C 470.748754 1.0043 468.691198 -1.084589 466.06442 -1.084589 L 418.312417 -1.084589 C 415.816195 -1.084589 413.763861 1.0043 413.763861 3.495301 L 413.763861 95.83464 C 413.763861 98.325641 415.816195 100.383196 418.312417 100.383196 L 466.06442 100.383196 C 468.691198 100.383196 470.748754 98.325641 470.748754 95.83464 C 470.748754 93.20264 468.691198 91.150307 466.06442 91.150307 Z M 466.06442 17.417746 L 436.80953 17.417746 C 434.182752 17.417746 432.093863 19.370857 432.093863 21.966302 L 432.093863 40.463414 C 432.093863 42.959637 434.182752 45.017192 436.80953 45.017192 L 457.499975 45.017192 C 460.131976 45.017192 462.184309 42.959637 462.184309 40.463414 C 462.184309 37.836636 460.131976 35.779081 457.499975 35.779081 L 441.363308 35.779081 L 441.363308 26.546191 L 466.06442 26.546191 C 468.691198 26.546191 470.748754 24.457302 470.748754 21.966302 C 470.748754 19.370857 468.691198 17.417746 466.06442 17.417746 Z M 457.499975 54.281415 L 436.80953 54.281415 C 434.182752 54.281415 432.093863 56.338971 432.093863 58.829971 L 432.093863 77.332306 C 432.093863 79.823306 434.182752 81.880862 436.80953 81.880862 L 466.06442 81.880862 C 468.691198 81.880862 470.748754 79.823306 470.748754 77.332306 C 470.748754 74.705528 468.691198 72.647972 466.06442 72.647972 L 441.363308 72.647972 L 441.363308 63.514305 L 457.499975 63.514305 C 460.131976 63.514305 462.184309 61.461971 462.184309 58.829971 C 462.184309 56.338971 460.131976 54.281415 457.499975 54.281415 Z M 457.499975 54.281415 " stroke="#6822ad" stroke-width="5.176312" stroke-opacity="1" stroke-miterlimit="4"/></g><path stroke-linecap="butt" transform="matrix(0.748005, 0, 0, 0.748005, 0.498675, 124.168874)" fill="none" stroke-linejoin="miter" d="M 111.485779 -0.956877 L 129.236113 -0.956877 L 129.236113 3.283567 L 111.485779 3.283567 L 111.485779 5.993901 L 122.207001 5.993901 L 122.207001 60.002127 L 125.157557 60.002127 L 125.157557 5.993901 L 129.236113 5.993901 L 129.236113 60.002127 L 132.285891 60.002127 L 132.285891 5.993901 L 143.163781 5.993901 L 143.163781 3.283567 L 132.285891 3.283567 L 132.285891 -0.956877 L 143.163781 -0.956877 L 143.163781 -3.928322 L 111.485779 -3.928322 Z M 177.076894 -3.849989 L 177.076894 32.872681 L 172.763338 32.872681 L 172.763338 -3.849989 L 169.870227 -3.849989 L 169.870227 32.872681 L 161.237893 32.872681 L 161.237893 -3.849989 L 158.365671 -3.849989 L 158.365671 32.872681 L 154.031226 32.872681 L 154.031226 -3.849989 L 151.159004 -3.849989 L 151.159004 60.002127 L 154.031226 60.002127 L 154.031226 42.967237 L 158.365671 42.967237 L 158.365671 60.002127 L 161.237893 60.002127 L 161.237893 42.967237 L 169.870227 42.967237 L 169.870227 60.002127 L 172.763338 60.002127 L 172.763338 40.079348 L 154.031226 40.079348 L 154.031226 35.76057 L 177.076894 35.76057 L 177.076894 60.002127 L 179.970006 60.002127 L 179.970006 -3.849989 Z M 215.31923 -0.00121061 C 212.760341 -2.7951 208.911563 -3.849989 205.475341 -3.849989 C 201.647451 -3.849989 198.367896 -2.5601 195.88734 -0.00121061 C 192.915895 2.636012 191.161229 6.641457 191.161229 10.725235 L 191.161229 45.761126 C 191.161229 49.844904 192.915895 53.845126 195.88734 56.482349 C 198.681229 58.962905 201.960785 60.002127 205.475341 60.002127 C 209.245785 60.002127 212.760341 58.712238 215.31923 56.482349 C 218.290675 53.845126 220.045342 49.844904 220.045342 45.761126 L 220.045342 10.725235 C 220.045342 6.641457 218.290675 2.636012 215.31923 -0.00121061 Z M 217.392453 10.725235 L 217.392453 45.761126 C 217.392453 49.040682 216.045119 52.247126 213.564563 54.39346 C 211.313785 56.560682 208.290119 57.286571 205.475341 57.286571 C 202.195785 57.286571 199.636896 56.325682 197.642007 54.39346 C 195.161451 52.247126 193.798451 49.040682 193.798451 45.761126 L 193.798451 10.725235 C 193.798451 7.440457 195.161451 4.239234 197.642007 2.087678 C 199.971118 -0.079544 202.524785 -1.113544 205.475341 -1.113544 C 208.603452 -1.113544 211.548786 0.155456 213.564563 2.087678 C 216.045119 4.239234 217.392453 7.440457 217.392453 10.725235 Z M 210.593119 5.116568 C 209.245785 3.847567 207.313563 3.283567 205.475341 3.283567 C 203.564007 3.283567 201.804118 3.847567 200.279229 5.116568 C 198.681229 6.641457 197.798673 8.55279 197.798673 10.725235 L 197.798673 45.761126 C 197.798673 47.928348 198.681229 49.844904 200.279229 51.369793 C 201.804118 52.638793 203.564007 53.202793 205.475341 53.202793 C 207.313563 53.202793 209.245785 52.638793 210.593119 51.369793 C 212.525341 49.844904 213.407897 47.928348 213.407897 45.761126 L 213.407897 10.725235 C 213.407897 8.55279 212.525341 6.641457 210.593119 5.116568 Z M 210.436452 10.725235 L 210.436452 45.761126 C 210.436452 47.207682 209.872452 48.398348 208.83323 49.275682 C 207.877563 50.158237 206.686896 50.487237 205.475341 50.487237 C 204.206341 50.487237 202.994785 50.158237 202.039118 49.275682 C 201.005118 48.398348 200.435896 47.207682 200.435896 45.761126 L 200.435896 10.725235 C 200.435896 9.278679 201.005118 8.088012 202.039118 7.205457 C 202.994785 6.328123 204.206341 5.993901 205.475341 5.993901 C 206.686896 5.993901 207.877563 6.328123 208.83323 7.205457 C 209.872452 8.088012 210.436452 9.278679 210.436452 10.725235 Z M 259.2329 -3.928322 L 256.517344 -3.928322 L 256.517344 45.917793 C 256.287566 48.889237 255.326677 51.442904 253.472788 53.516126 C 251.326455 55.996682 248.12001 57.286571 244.918788 57.286571 C 241.717565 57.286571 238.511121 55.996682 236.364787 53.516126 C 234.526565 51.369793 233.393343 48.711682 233.393343 45.917793 L 233.393343 -3.928322 L 230.677787 -3.928322 L 230.677787 45.917793 C 230.75612 47.756015 230.99112 49.040682 231.403676 50.314904 C 232.046009 52.168793 233.001676 53.845126 234.354232 55.349127 C 237.007121 58.320571 240.991676 60.002127 244.918788 60.002127 C 248.845899 60.002127 252.846122 58.320571 255.483344 55.349127 C 257.9639 52.717126 259.2329 49.197348 259.2329 45.917793 Z M 239.388454 50.800571 C 240.913343 52.403793 242.751565 53.202793 244.918788 53.202793 C 247.08601 53.202793 249.080899 52.32546 250.443899 50.800571 C 251.634566 49.432348 252.438788 47.677682 252.438788 45.839459 L 252.438788 -3.928322 L 249.723233 -3.928322 L 249.723233 45.761126 C 249.488233 47.030126 249.310677 48.085015 248.433344 48.962348 C 247.55601 50.001571 246.365343 50.487237 244.918788 50.487237 C 243.472232 50.487237 242.281565 50.001571 241.404232 48.962348 C 240.60001 47.928348 240.192676 46.873459 240.192676 45.761126 L 240.192676 -3.928322 L 237.477121 -3.928322 L 237.477121 45.839459 C 237.555454 47.834348 238.197787 49.510682 239.388454 50.800571 Z M 299.491014 33.045014 L 296.597903 33.045014 L 296.597903 49.923237 C 295.877236 49.923237 295.22968 49.923237 294.681347 49.844904 C 293.647347 49.766571 292.514125 49.688237 292.279124 49.609904 L 292.279124 33.045014 L 289.391235 33.045014 L 289.391235 48.889237 C 287.553013 48.163348 285.798346 47.030126 284.116791 45.353793 C 281.871235 43.123904 280.189679 40.157681 278.999012 36.951236 C 276.753457 30.486125 277.087679 22.872124 280.033013 16.798679 C 281.557902 13.670568 283.552791 11.190012 286.033346 9.200346 C 288.686235 7.28379 291.480124 6.328123 294.451569 6.328123 L 294.451569 3.435012 C 290.837791 3.435012 287.244902 4.724901 284.351791 6.876457 C 281.401235 9.122012 279.077346 11.994235 277.401012 15.608013 C 274.194568 22.558791 273.802901 30.721125 276.283457 37.833792 C 277.479346 41.44757 279.489901 44.805459 282.127124 47.442682 C 284.273457 49.432348 286.597346 51.113904 289.391235 51.991237 L 289.391235 56.482349 C 285.328346 55.448349 281.871235 53.281126 279.077346 50.487237 C 275.876123 47.286015 273.724568 43.437237 272.204901 39.275125 C 270.680012 35.118236 270.116012 30.799458 270.366679 26.407569 C 270.601679 21.994791 271.635679 17.754346 273.473901 13.76979 C 275.406123 9.686012 278.121679 6.228901 281.714568 3.435012 C 283.474457 2.166012 285.485013 1.111123 287.70968 0.233789 C 289.955235 -0.486877 292.200791 -0.878544 294.451569 -0.878544 L 294.451569 -3.771655 C 291.793458 -3.771655 289.234569 -3.3591 286.754013 -2.481766 C 284.273457 -1.599211 282.04879 -0.392877 280.033013 1.111123 C 275.954457 4.239234 272.925568 8.088012 270.915012 12.479901 C 268.84179 16.877013 267.708567 21.446458 267.557123 26.230013 C 267.322123 31.034458 267.886123 35.682236 269.489345 40.236014 C 270.993345 44.727126 273.473901 48.962348 277.009346 52.482126 C 278.764012 54.236793 280.758901 55.761682 283.004457 57.030682 C 284.994124 58.085571 287.166569 58.884571 289.391235 59.432905 C 290.916124 59.84546 292.514125 60.002127 294.19568 60.002127 L 299.491014 60.002127 Z M 296.597903 52.79546 L 296.597903 57.129904 L 294.681347 57.129904 C 293.647347 57.129904 292.592458 57.030682 292.279124 57.030682 L 292.279124 52.638793 C 292.592458 52.717126 293.647347 52.717126 294.681347 52.717126 C 295.22968 52.717126 295.877236 52.717126 296.597903 52.79546 Z M 334.756683 -3.849989 L 334.756683 32.872681 L 330.443127 32.872681 L 330.443127 -3.849989 L 327.550016 -3.849989 L 327.550016 32.872681 L 318.917682 32.872681 L 318.917682 -3.849989 L 316.045459 -3.849989 L 316.045459 32.872681 L 311.711015 32.872681 L 311.711015 -3.849989 L 308.838792 -3.849989 L 308.838792 60.002127 L 311.711015 60.002127 L 311.711015 42.967237 L 316.045459 42.967237 L 316.045459 60.002127 L 318.917682 60.002127 L 318.917682 42.967237 L 327.550016 42.967237 L 327.550016 60.002127 L 330.443127 60.002127 L 330.443127 40.079348 L 311.711015 40.079348 L 311.711015 35.76057 L 334.756683 35.76057 L 334.756683 60.002127 L 337.649794 60.002127 L 337.649794 -3.849989 Z M 345.326462 -0.956877 L 363.076796 -0.956877 L 363.076796 3.283567 L 345.326462 3.283567 L 345.326462 5.993901 L 356.047684 5.993901 L 356.047684 60.002127 L 358.99824 60.002127 L 358.99824 5.993901 L 363.076796 5.993901 L 363.076796 60.002127 L 366.126574 60.002127 L 366.126574 5.993901 L 377.004464 5.993901 L 377.004464 3.283567 L 366.126574 3.283567 L 366.126574 -0.956877 L 377.004464 -0.956877 L 377.004464 -3.928322 L 345.326462 -3.928322 Z M 345.326462 -0.956877 " stroke="#670dbf" stroke-width="1.9" stroke-opacity="1" stroke-miterlimit="4"/></svg>